<?xml version="1.0" encoding="UTF-8" standalone="no"?>
<!-- Created with Inkscape (http://www.inkscape.org/) -->

<svg
   width="507.70352mm"
   height="685.36554mm"
   viewBox="0 0 507.70351 685.36553"
   version="1.1"
   id="svg1"
   xml:space="preserve"
   inkscape:version="1.4.2 (ebf0e940, 2025-05-08)"
   sodipodi:docname="logo.svg"
   inkscape:export-filename="../../logo.svg"
   inkscape:export-xdpi="96"
   inkscape:export-ydpi="96"
   xmlns:inkscape="http://www.inkscape.org/namespaces/inkscape"
   xmlns:sodipodi="http://sodipodi.sourceforge.net/DTD/sodipodi-0.dtd"
   xmlns="http://www.w3.org/2000/svg"
   xmlns:svg="http://www.w3.org/2000/svg"><sodipodi:namedview
     id="namedview1"
     pagecolor="#ffffff"
     bordercolor="#000000"
     borderopacity="0.25"
     inkscape:showpageshadow="2"
     inkscape:pageopacity="0.0"
     inkscape:pagecheckerboard="0"
     inkscape:deskcolor="#d1d1d1"
     inkscape:document-units="mm"
     inkscape:zoom="0.023162177"
     inkscape:cx="-5612.5984"
     inkscape:cy="3043.7553"
     inkscape:window-width="1696"
     inkscape:window-height="940"
     inkscape:window-x="8"
     inkscape:window-y="47"
     inkscape:window-maximized="0"
     inkscape:current-layer="layer1"><inkscape:page
       x="0"
       y="0"
       width="507.70352"
       height="685.36554"
       id="page2"
       margin="0"
       bleed="0" /></sodipodi:namedview><defs
     id="defs1" /><g
     inkscape:label="Layer 1"
     inkscape:groupmode="layer"
     id="layer1"
     transform="translate(-1145.4292,-197.88992)"><path
       style="fill:#000000"
       d="m 1393.5142,883.07152 c -23.1951,-2.84675 -52.3904,-16.06986 -80.8833,-36.63364 -9.2314,-6.6624 -19.3437,-14.82135 -26.8743,-21.68298 -0.4763,-0.43395 -1.8617,-1.68654 -3.0788,-2.78355 -3.2545,-2.93336 -16.2339,-15.96115 -19.4519,-19.52438 -5.6847,-6.29458 -11.1703,-12.74512 -14.2224,-16.72412 -0.7937,-1.03484 -1.7366,-2.24127 -2.0952,-2.68097 -0.6494,-0.7961 -1.948,-2.52619 -4.6443,-6.18734 -3.5392,-4.80579 -8.4682,-12.20133 -11.1574,-16.74091 -0.8777,-1.48166 -1.7903,-2.997 -2.0279,-3.36742 -0.2375,-0.37042 -0.9913,-1.71258 -1.675,-2.98258 -1.4437,-2.68174 -2.4947,-4.53596 -3.4902,-6.15757 -0.3898,-0.635 -0.874,-1.68928 -1.0759,-2.34285 -0.202,-0.65357 -1.2777,-5.58925 -2.3905,-10.96818 -1.1128,-5.37893 -3.3698,-16.2742 -5.0155,-24.2117 -1.6458,-7.9375 -4.3942,-21.20755 -6.1077,-29.48901 -1.7134,-8.28146 -3.1779,-15.0572 -3.2544,-15.0572 -0.076,0 -0.8728,0.55342 -1.7696,1.22982 -3.7239,2.80863 -6.4227,3.76565 -9.8867,3.50593 -2.111,-0.15827 -3.9105,-0.8523 -6.2992,-2.42937 -8.8696,-5.85611 -17.954,-19.65704 -25.8747,-39.30869 -8.764,-21.74389 -14.6887,-47.17198 -16.486,-70.75526 -0.3823,-5.01545 -0.4378,-15.37769 -0.1053,-19.62728 1.152,-14.7226 5.3992,-25.68136 11.0881,-28.61036 2.7181,-1.39944 7.1719,-2.54267 8.9051,-2.28581 0.3939,0.0584 1.0625,0.16056 1.4858,0.22709 1.0704,0.16821 3.8166,1.37935 5.18,2.28453 0.6265,0.41593 1.644,1.22363 2.261,1.7949 l 1.1219,1.03868 v -3.37943 -3.37943 l 0.7216,-0.12015 c 7.2348,-1.20468 14.8046,-5.64619 18.9111,-11.09597 2.7367,-3.63192 3.5176,-6.51239 2.9369,-10.8339 -0.653,-4.85945 -0.7857,-19.29569 -0.2475,-26.93939 2.0843,-29.60678 10.9321,-54.7611 26.1596,-74.37197 14.4866,-18.65657 34.5318,-31.71163 58.3138,-37.9785 5.3075,-1.3986 11.4446,-2.57722 17.1257,-3.28896 3,-0.37583 8.9503,-0.86835 10.4871,-0.86804 l 1.1546,2.4e-4 0.4613,1.19983 c 2.1926,5.70304 8.2039,8.9892 14.1629,7.74238 2.0617,-0.43137 4.3225,-1.63974 5.9367,-3.17313 2.5273,-2.40062 3.8094,-5.3225 3.8429,-8.7573 0.021,-2.14341 -0.24,-3.46493 -1.0324,-5.23153 -1.4093,-3.14164 -3.6094,-5.21526 -7.0473,-6.64204 -1.4655,-0.6082 -1.5852,-0.62558 -4.2976,-0.62401 -2.5387,10e-4 -2.9071,0.0466 -4.0874,0.5005 -3.1683,1.21848 -5.5467,3.28365 -6.8548,5.95219 -0.4365,0.89052 -0.912,2.09538 -1.0566,2.67746 l -0.263,1.05834 -2.3839,0.1292 c -25.6119,1.38809 -48.961,9.49288 -67.6157,23.47025 -7.3557,5.51143 -14.5021,12.47396 -20.3571,19.83333 -15.4896,19.46961 -24.9467,44.9226 -27.5462,74.13843 -0.7878,8.85484 -0.8673,21.30725 -0.1958,30.66581 l 0.3226,4.49612 -0.7774,1.56525 c -1.3078,2.63345 -3.8661,5.28212 -7.1246,7.37641 -2.5608,1.64585 -7.6781,3.71383 -9.19,3.71383 h -0.4595 v -13.99886 -13.99887 l 1.7676,-0.67348 c 3.9339,-1.4989 7.3387,-4.27349 9.091,-7.40833 1.2024,-2.15102 1.4653,-3.40583 1.6529,-7.8894 1.4359,-34.30805 8.2536,-63.7188 20.6525,-89.09242 15.7084,-32.14615 38.6351,-54.06739 66.1195,-63.21963 6.2248,-2.07286 14.0934,-3.81449 18.7243,-4.14441 l 1.5764,-0.11231 0.5649,1.285 c 2.0626,4.69266 6.9651,7.63545 12.2313,7.34209 9.0744,-0.50549 14.7595,-9.99952 10.8798,-18.169 -1.7406,-3.66527 -4.6003,-5.99384 -8.6042,-7.00635 -1.327,-0.33557 -1.9374,-0.38438 -3.6196,-0.28946 -3.6906,0.20827 -5.8933,1.18726 -8.4871,3.77211 -1.7144,1.7085 -2.6483,3.42072 -3.2889,6.03013 -0.3403,1.38624 -0.4861,1.70144 -0.815,1.7623 -0.2203,0.0408 -1.7497,0.25299 -3.3986,0.47158 -20.9772,2.78098 -41.0559,12.91806 -57.5949,29.07775 -10.0796,9.84845 -18.0427,20.50346 -25.527,34.15626 -14.0261,25.5866 -22.7464,58.95243 -24.4164,93.42197 -0.4349,8.97665 -0.3651,8.35275 -1.0976,9.81684 -0.8362,1.67145 -2.7747,3.51673 -4.7774,4.54768 -0.7832,0.40322 -1.4611,0.69155 -1.5064,0.64074 -0.1296,-0.14564 -0.4278,-33.08295 -0.3806,-42.04087 0.023,-4.445 0.1311,-9.38068 0.2392,-10.96818 0.5019,-7.36916 0.6215,-8.92462 0.9838,-12.79621 0.2129,-2.27542 0.4583,-4.3103 0.5454,-4.52197 0.1116,-0.27138 0.492,-0.46095 1.2903,-0.64298 4.6377,-1.05748 9.5841,-4.62738 11.3312,-8.17793 0.7023,-1.42741 0.7946,-1.77218 2.0157,-7.53515 7.4898,-35.34596 31.3954,-74.31996 60.4253,-98.51279 9.5241,-7.93716 20.0826,-14.34538 28.8179,-17.49041 l 1.3975,-0.50315 0.9116,0.55806 c 1.7265,1.05688 3.1757,1.41253 5.3374,1.3098 2.2192,-0.10547 3.387,-0.49648 5.126,-1.71631 2.8477,-1.99753 4.401,-5.66136 3.8402,-9.0577 -0.8068,-4.88578 -5.0839,-8.31385 -9.9479,-7.97322 l -1.559,0.10917 -4.0798,-7.80349 c -2.2439,-4.29192 -4.0535,-7.82739 -4.0213,-7.85661 0.5399,-0.49043 8.5269,-5.0373 12.5901,-7.16734 30.0031,-15.7286 64.2128,-24.58104 100.2771,-25.94868 l 3.5117,-0.13317 v 81.30125 81.30124 l -0.914,0.3458 c -2.2012,0.83278 -4.5471,2.5838 -6.0309,4.50166 -4.3,5.55776 -3.9883,13.01564 0.7583,18.14246 5.8791,6.35023 16.1153,6.35023 21.9945,0 4.7465,-5.12682 5.0582,-12.5847 0.7582,-18.14246 -1.4838,-1.91786 -3.8296,-3.66888 -6.0309,-4.50166 l -0.914,-0.3458 v -81.30124 -81.30125 l 3.5118,0.13317 c 36.0603,1.36749 70.2773,10.22181 100.277,25.94868 4.0632,2.13004 12.0502,6.67691 12.5902,7.16734 0.032,0.0292 -1.7775,3.56469 -4.0214,7.85661 l -4.0798,7.80349 -1.559,-0.10917 c -4.864,-0.34063 -9.1411,3.08744 -9.9478,7.97322 -0.5609,3.39634 0.9925,7.06017 3.8402,9.0577 1.739,1.21983 2.9068,1.61084 5.1259,1.71631 2.1617,0.10273 3.611,-0.25292 5.3374,-1.3098 l 0.9116,-0.55806 1.3975,0.50315 c 8.7354,3.14503 19.2939,9.55325 28.8179,17.49041 29.0299,24.19283 52.9356,63.16683 60.4253,98.51279 1.2212,5.76297 1.3134,6.10774 2.0158,7.53515 1.747,3.55055 6.6934,7.12045 11.3311,8.17793 0.7983,0.18203 1.1788,0.3716 1.2904,0.64298 0.087,0.21167 0.3325,2.24655 0.5454,4.52197 0.3622,3.87159 0.4818,5.42705 0.9837,12.79621 0.1081,1.5875 0.2158,6.52318 0.2392,10.96818 0.047,8.95792 -0.2509,41.89523 -0.3806,42.04087 -0.045,0.0508 -0.7231,-0.23752 -1.5064,-0.64074 -2.0027,-1.03095 -3.9412,-2.87623 -4.7774,-4.54768 -0.7324,-1.46409 -0.6627,-0.84019 -1.0976,-9.81684 -1.6698,-34.46632 -10.3917,-67.83797 -24.4164,-93.42197 -9.8501,-17.96869 -21.6416,-32.16476 -35.8434,-43.15287 -13.8373,-10.70614 -30.751,-17.89006 -47.2785,-20.08114 -1.6489,-0.21859 -3.1782,-0.43081 -3.3986,-0.47158 -0.3289,-0.0609 -0.4747,-0.37606 -0.815,-1.7623 -0.6406,-2.60941 -1.5745,-4.32163 -3.2889,-6.03013 -2.5938,-2.58485 -4.7965,-3.56384 -8.4871,-3.77211 -1.6822,-0.0949 -2.2926,-0.0461 -3.6196,0.28946 -4.0039,1.01251 -6.8635,3.34108 -8.6041,7.00635 -2.4944,5.25233 -1.0759,11.57012 3.4335,15.29277 3.8056,3.14164 9.1301,3.79882 13.5958,1.67806 2.7689,-1.31494 4.9054,-3.46981 6.0735,-6.12587 l 0.5731,-1.30305 1.5764,0.11231 c 0.867,0.0618 3.112,0.37116 4.9889,0.68754 15.7099,2.64816 30.6311,9.45677 43.8014,19.98671 26.0145,20.79906 44.5812,55.34072 52.5575,97.77843 2.2491,11.96632 3.5409,23.82661 4.1496,38.1 0.1867,4.3781 0.4578,5.657 1.6518,7.79318 1.7524,3.13484 5.1571,5.90943 9.0911,7.40833 l 1.7675,0.67348 v 13.99887 13.99886 h -0.4595 c -1.5118,0 -6.6291,-2.06798 -9.1899,-3.71383 -3.2586,-2.09429 -5.8169,-4.74296 -7.1247,-7.37641 l -0.7773,-1.56525 0.3226,-4.49612 c 0.6704,-9.35856 0.5909,-21.81097 -0.197,-30.66581 -2.5994,-29.21583 -12.0565,-54.66882 -27.5462,-74.13843 -4.1842,-5.25926 -10.3634,-11.66913 -15.0654,-15.6278 -19.8148,-16.68213 -44.7566,-26.15009 -72.9074,-27.67578 l -2.3838,-0.1292 -0.263,-1.05834 c -0.9752,-3.92497 -3.8599,-7.07149 -7.9115,-8.62965 -1.1803,-0.45393 -1.5486,-0.49903 -4.0873,-0.5005 -2.7125,-0.002 -2.8322,0.0158 -4.2977,0.62401 -3.4378,1.42678 -5.638,3.5004 -7.0472,6.64204 -0.7925,1.7666 -1.0533,3.08812 -1.0324,5.23153 0.033,3.4348 1.3156,6.35668 3.8428,8.7573 1.6143,1.53339 3.8751,2.74176 5.9367,3.17313 5.9591,1.24682 11.9703,-2.03934 14.163,-7.74238 l 0.4613,-1.19983 1.1545,-2.4e-4 c 0.635,-1.3e-4 2.7132,0.12733 4.6182,0.28324 20.2589,1.65803 38.2368,7.36709 53.975,17.14033 13.9749,8.67828 25.9718,20.94431 34.7255,35.50459 10.8052,17.9726 17.045,39.1113 18.7676,63.57931 0.5381,7.6437 0.4055,22.07994 -0.2475,26.93939 -0.5807,4.32151 0.2001,7.20198 2.9369,10.8339 4.1065,5.44978 11.6763,9.89129 18.9111,11.09597 l 0.7215,0.12015 v 3.37943 3.37943 l 1.1219,-1.03868 c 0.6171,-0.57127 1.6345,-1.37897 2.261,-1.7949 1.3635,-0.90518 4.1097,-2.11632 5.18,-2.28453 0.4234,-0.0665 1.092,-0.16872 1.4859,-0.22709 1.7331,-0.25686 6.1869,0.88637 8.905,2.28581 4.8364,2.49001 8.8846,11.32533 10.4641,22.83764 0.6463,4.71038 0.8595,8.49123 0.8465,15.00909 -0.058,28.94518 -9.0429,66.6111 -22.2859,93.42197 -6.5053,13.17015 -13.5565,22.51279 -20.4026,27.03289 -3.9232,2.59027 -7.0493,3.08867 -11.244,1.79266 -1.3322,-0.41158 -2.8576,-1.29725 -4.9418,-2.86922 -0.8969,-0.6764 -1.6932,-1.22982 -1.7697,-1.22982 -0.077,0 -1.5409,6.77574 -3.2544,15.0572 -1.7134,8.28146 -4.4619,21.55151 -6.1076,29.48901 -1.6457,7.9375 -3.9027,18.83277 -5.0155,24.2117 -1.1128,5.37893 -2.1886,10.31461 -2.3905,10.96818 -0.2019,0.65357 -0.6861,1.70785 -1.0759,2.34285 -0.9956,1.62161 -2.0466,3.47583 -3.4902,6.15757 -0.6837,1.27 -1.4375,2.61216 -1.6751,2.98258 -0.2376,0.37042 -1.1501,1.88576 -2.0278,3.36742 -2.6893,4.53958 -7.6182,11.93512 -11.1575,16.74091 -2.6962,3.66115 -3.9948,5.39124 -4.6442,6.18734 -0.3587,0.4397 -1.3015,1.64613 -2.0953,2.68097 -3.052,3.979 -8.5376,10.42954 -14.2224,16.72412 -3.218,3.56323 -16.1974,16.59102 -19.4518,19.52438 -1.2171,1.09701 -2.6026,2.3496 -3.0788,2.78355 -1.9403,1.76797 -5.6567,4.99594 -8.4667,7.35407 -25.6882,21.55729 -52.9345,37.69297 -77.344,45.80428 -9.556,3.17549 -21.79,5.70744 -25.603,5.29882 -1.3636,-0.14614 -2.8356,-0.14811 -4.5219,-0.006 -0.7409,0.0624 -2.2562,0.002 -3.3674,-0.1345 z M 1178.0862,389.2913 c 0.2609,-2.13809 1.4663,-9.21665 2.2411,-13.16024 7.4079,-37.70493 23.0056,-71.59391 45.8175,-99.54755 4.5042,-5.51947 7.9641,-9.31246 13.9943,-15.34147 7.1795,-7.1781 12.1128,-11.56891 19.2554,-17.13803 4.6917,-3.65818 13.6567,-9.98927 14.1266,-9.97624 0.2151,0.006 8.0021,14.80168 8.0021,15.20431 0,0.12356 -0.2603,0.55343 -0.5786,0.95525 -1.7567,2.21798 -2.4668,5.84179 -1.6494,8.41708 0.1046,0.32974 -0.1641,0.49286 -2.1455,1.3025 -10.6218,4.34018 -21.2368,11.25625 -32.2833,21.03363 -3.1849,2.81907 -10.664,10.31143 -13.6957,13.72019 -21.9917,24.72622 -38.144,55.2571 -44.3215,83.77564 -1.4449,6.67062 -1.4407,6.65757 -2.6322,8.12864 -1.1322,1.39784 -3.971,3.19835 -5.7144,3.62443 l -0.5548,0.13558 z m 440.856,0.59668 c -1.4922,-0.61336 -3.5848,-2.04888 -4.4517,-3.05389 -1.273,-1.47573 -1.3166,-1.60658 -2.766,-8.29772 -10.7265,-49.51963 -51.097,-102.51046 -90.3004,-118.52946 -1.9815,-0.80964 -2.2502,-0.97276 -2.1455,-1.3025 0.8174,-2.57529 0.1072,-6.1991 -1.6495,-8.41708 -0.3182,-0.40182 -0.5786,-0.83169 -0.5786,-0.95525 0,-0.40263 7.7871,-15.19835 8.0022,-15.20431 0.4698,-0.013 9.4349,6.31806 14.1266,9.97624 7.1968,5.61137 12.1034,9.98064 19.3504,17.23126 5.9576,5.96054 9.4246,9.76491 13.9277,15.2831 24.3982,29.8974 40.5055,66.55999 47.2283,107.4983 0.9276,5.64879 0.9926,6.25482 0.6707,6.24922 -0.1445,-0.002 -0.7809,-0.21757 -1.4142,-0.47791 z"
       id="path1" /></g></svg>
